<svg xmlns="http://www.w3.org/2000/svg" viewBox="0 0 120 120" role="img" aria-label="Emblème d20">
  <defs>
    <linearGradient id="stone" x1="15" y1="16" x2="105" y2="104" gradientUnits="userSpaceOnUse">
      <stop stop-color="#67b7a7"/>
      <stop offset=".48" stop-color="#d7b46a"/>
      <stop offset="1" stop-color="#be5a40"/>
    </linearGradient>
    <filter id="glow" x="-20%" y="-20%" width="140%" height="140%">
      <feGaussianBlur stdDeviation="2.8" result="blur"/>
      <feMerge>
        <feMergeNode in="blur"/>
        <feMergeNode in="SourceGraphic"/>
      </feMerge>
    </filter>
  </defs>
  <path fill="#111315" stroke="url(#stone)" stroke-width="4" d="M60 8 108 35v50l-48 27-48-27V35L60 8Z"/>
  <path fill="#202629" stroke="#d7b46a" stroke-width="2" d="m60 19 36 21-13 44-23 13-23-13-13-44 36-21Z"/>
  <path fill="none" stroke="#67b7a7" stroke-linecap="round" stroke-linejoin="round" stroke-width="2.5" d="M60 19v78M24 40l36 57 36-57M37 84h46M24 40h72"/>
  <circle cx="60" cy="58" r="14" fill="#111315" stroke="#f4f0e7" stroke-width="2"/>
  <path fill="#d7b46a" filter="url(#glow)" d="m60 43 3.7 10.4 10.6 3.4-10.4 3.8L60 72l-3.9-11.4-10.4-3.8 10.6-3.4L60 43Z"/>
</svg>
